<svg version="1.0" xmlns="http://www.w3.org/2000/svg" width="93.333" height="93.333" viewBox="0 0 70 70"><path d="M23.8 1.3C13.9 5.1 8.1 10.1 3.2 19.4.8 24 .5 25.5.5 35c0 10 .1 10.8 3.4 16.8 3.9 7.1 7.8 11 15.4 15 4.7 2.4 6.2 2.7 15.7 2.7s11-.3 15.7-2.7c7.6-4 11.5-7.9 15.4-15 3.3-6 3.4-6.8 3.4-16.8s-.1-10.8-3.4-16.8c-3.9-7.1-7.9-11-15.4-14.9-4.3-2.2-6.8-2.7-14.2-3-5.9-.2-10.3.1-12.7 1zm23.6 30.4c3.7 9.8 7 19 7.3 20.5.5 2.8.5 2.8-4.7 2.8-4.8 0-5.2-.2-6.3-3-1.2-3.1-1.2-3.1-8.1-2.8-6.6.3-7.1.5-7.6 2.8-.5 2.2-1.2 2.5-5.8 2.8-3.8.2-5.2-.1-5.2-1 0-1.1 9.1-27.2 12.9-37.1.9-2.4 1.5-2.7 5.9-2.7h4.8l6.8 17.7z"/><path d="M33.6 32.7c-2.1 6.2-2.1 6.3 1.9 6.3 1.9 0 3.5-.5 3.5-1.1 0-2.4-2.3-9.9-3-9.9-.5 0-1.5 2.1-2.4 4.7z"/></svg>