<?xml version="1.0" standalone="no"?>
<!DOCTYPE svg PUBLIC "-//W3C//DTD SVG 20010904//EN"
 "http://www.w3.org/TR/2001/REC-SVG-20010904/DTD/svg10.dtd">
<svg version="1.0" xmlns="http://www.w3.org/2000/svg"
 width="70.000000pt" height="70.000000pt" viewBox="0 0 70.000000 70.000000"
 preserveAspectRatio="xMidYMid meet">
<metadata>
Created by potrace 1.11, written by Peter Selinger 2001-2013
</metadata>
<g transform="translate(0.000000,70.000000) scale(0.100000,-0.100000)"
fill="#000000" stroke="none">
<path d="M238 687 c-99 -38 -157 -88 -206 -181 -24 -46 -27 -61 -27 -156 0
-100 1 -108 34 -168 39 -71 78 -110 154 -150 47 -24 62 -27 157 -27 95 0 110
3 157 27 76 40 115 79 154 150 33 60 34 68 34 168 0 100 -1 108 -34 168 -39
71 -79 110 -154 149 -43 22 -68 27 -142 30 -59 2 -103 -1 -127 -10z m236 -304
c37 -98 70 -190 73 -205 5 -28 5 -28 -47 -28 -48 0 -52 2 -63 30 -12 31 -12
31 -81 28 -66 -3 -71 -5 -76 -28 -5 -22 -12 -25 -58 -28 -38 -2 -52 1 -52 10
0 11 91 272 129 371 9 24 15 27 59 27 l48 0 68 -177z"/>
<path d="M336 373 c-21 -62 -21 -63 19 -63 19 0 35 5 35 11 0 24 -23 99 -30
99 -5 0 -15 -21 -24 -47z"/>
</g>
</svg>
